<svg xmlns="http://www.w3.org/2000/svg" viewBox="0 0 100 100">
  <path fill="#4B0082" d="M50 0 L55.9 34.5 L85.4 14.6 L65.5 44.1 L100 50 L65.5 55.9 L85.4 85.4 L55.9 65.5 L50 100 L44.1 65.5 L14.6 85.4 L34.5 55.9 L0 50 L34.5 44.1 L14.6 14.6 L44.1 34.5 Z" />
  <path fill="white" d="M50,25 C42.82,25 37,30.82 37,38 C37,48.25 50,65 50,65 C50,65 63,48.25 63,38 C63,30.82 57.18,25 50,25 Z M50,44 C47.24,44 45,41.76 45,39 C45,36.24 47.24,34 50,34 C52.76,34 55,36.24 55,39 C55,41.76 52.76,44 50,44 Z" />
</svg>